<?xml version="1.0" encoding="utf-8"?>
<!-- Designed by Vexels.com - 2016 All Rights Reserved - https://vexels.com/terms-and-conditions/  -->

<svg version="1.1" id="Layer_1" xmlns="http://www.w3.org/2000/svg" xmlns:xlink="http://www.w3.org/1999/xlink" x="0px" y="0px"
	 width="1200px" height="1200px" viewBox="0 0 1200 1200" enable-background="new 0 0 1200 1200" xml:space="preserve">
<g>
	<path fill="#F7F6EC" d="M103.566,266.191c0.119,0.549,0.191,0.86,0.191,0.86C103.662,266.776,103.637,266.477,103.566,266.191z"/>
	<path fill="#F7F6EC" d="M101.678,256.055c0.322,3.37,0.944,6.741,1.888,10.136C103.208,264.649,102.418,261.063,101.678,256.055z"
		/>
	<path fill="#F7F6EC" d="M632.245,428.334c14.054-4.972,30.595-3.323,51.271-4.148c20.592-0.825-4.792-3.275,40.898-16.397
		l150.216-10.996l275.288,4.972l0.083-4.745l-275.12-4.972l-110.036-29.387c-0.083-1.877-0.286-2.989-0.286-2.989
		c-19.852-36.368-83.528,2.487-83.528,2.487s11.581,4.134-4.135,0.813c-15.727-3.299-64.501-9.908-79.38-9.908
		c-14.904,0-67.836-1.65-67.836-1.65c-12.406-9.931-65.326-43.837-65.326-43.837c-20.675-42.176-95.945-47.961-95.945-47.961
		c-4.135-3.31,4.971-12.405,20.687-37.204c15.704-24.835,10.756-39.726,10.756-39.726c6.61-6.609,9.908-23.15-6.633-66.964
		c-16.529-43.849-68.649-33.929-82.703-29.794c-14.054,4.146-19.839,13.242-19.839,13.242s0,0,0-4.148
		c0-4.135-32.256-23.986-47.148-24.798c-14.879-0.837-43.013-12.406-106.678-1.65C73.162,79.319,50,152.928,50,152.928
		c10.756-18.191,38.866-12.406,38.866-12.406c-24.799,14.054-29.76,44.65-29.76,44.65c5.785-23.986,49.622-34.718,49.622-34.718
		c-61.214,31.408-23.162,105.853-23.162,105.853c-24.81-61.191,52.932-97.582,52.932-97.582
		c-42.774,21.692-40.204,74.397-36.821,97.331c-4.375-46.478,47.9-89.85,73.214-99.829c27.296-10.744,62.852-18.19,62.852-18.19
		c20.676-11.581,11.581,4.146,11.581,4.146c-33.081,46.312,16.541,74.434,16.541,74.434c12.405,0,0,21.5,0,21.5l-18.202,19.839
		c-28.947,9.931-45.476,41.364-49.634,62.864c-4.111,21.512,6.633,43.826,23.174,70.298c16.54,26.448,58.716,75.257,69.472,87.662
		c10.756,12.394,14.891,9.095,21.501,18.191c6.621,9.094,7.444,12.405,7.444,22.325c0,9.931,15.705,35.567,25.636,52.945
		c9.919,17.365,0,34.718,3.298,71.959c3.31,37.204,63.689,71.122,90.974,74.42c27.297,3.31,21.5-1.65,39.714,0
		c18.19,1.673,101.717,43.001,101.717,43.001c47.149,16.54,37.205,43.825,37.205,43.825c-3.299,57.905,26.483,73.609,36.404,91.798
		c9.919,18.214,23.15,33.918,37.204,59.553c14.067,25.635,10.756,56.243,18.214,66.163c0,0,0.083,0.108,0.203,0.274
		c1.339,1.745,2.415,2.833,3.31,3.383c4.315,3.86,12.561,9.346,24.202,9.262c1.242,2.116,2.055,3.634,2.055,3.634
		c15.704,19.827,26.46,71.122,26.46,71.122c-14.067,47.149,26.472,14.056,26.472,14.056l52.097-62.028
		c55.406-62.852,54.581-110.011,43.825-143.069c-10.732-33.081-33.081-33.93-54.57-11.581c-21.5,22.325-33.093,76.094-36.404,75.257
		c-3.298-0.837-11.581-6.633-15.716-24.01c-4.123-17.354-3.31-5.773-18.19-28.922s-16.541-12.394-15.704-37.216
		c0.825-24.823-4.971-84.353-11.581-100.893c-6.621-16.541-9.094-43.838-9.943-60.367c-0.813-16.54-4.123-20.687-21.488-54.605
		c-17.366-33.894-99.244-114.123-99.244-114.123c-19.014-35.567-53.77-38.041-53.77-38.041
		c-13.229-23.986-72.76-114.123-72.76-114.123c3.298,1.65,38.029,15.704,66.163,23.139
		C573.515,441.553,618.166,433.282,632.245,428.334z M764.726,367.562l95.598,25.515l-120.684,8.82
		C759.382,391.703,763.924,376.656,764.726,367.562z"/>
</g>
</svg>
